<svg width="64" height="64" viewBox="0 0 64 64" fill="none" xmlns="http://www.w3.org/2000/svg">
<g filter="url(#filter0_d_392_7827)">
<path d="M41.5 23.5L32 32.5L22.5 23.5L22.5 15.5C22.5 12.1863 25.1863 9.5 28.5 9.5L35.5 9.5C38.8137 9.5 41.5 12.1863 41.5 15.5L41.5 23.5ZM41.5 49.5C41.5 52.8137 38.8137 55.5 35.5 55.5L28.5 55.5C25.1863 55.5 22.5 52.8137 22.5 49.5L22.5 41.5L32 32.5L41.5 41.5L41.5 49.5Z" fill="white" fill-opacity="0.5"/>
<path d="M35.5 52.75L28.5 52.75C26.7051 52.75 25.25 51.2949 25.25 49.5L25.25 41.7969L31.0879 35.5693C31.5817 35.0426 32.4183 35.0426 32.9121 35.5693L38.75 41.7969L38.75 49.5C38.75 51.2949 37.2949 52.75 35.5 52.75Z" fill="#363838" stroke="#4F4F4F" stroke-width="1.5"/>
<path d="M35.5 12.25L28.5 12.25C26.7051 12.25 25.25 13.7051 25.25 15.5L25.25 23.2031L31.0879 29.4307C31.5817 29.9574 32.4183 29.9574 32.9121 29.4307L38.75 23.2031L38.75 15.5C38.75 13.7051 37.2949 12.25 35.5 12.25Z" fill="#363838" stroke="#4F4F4F" stroke-width="1.5"/>
<path d="M49 23C52.3137 23 55 25.6863 55 29L55 36C55 39.3137 52.3137 42 49 42L40 42L31.5263 33.95C30.6963 33.1615 30.6963 31.8385 31.5263 31.05L40 23L49 23Z" fill="white" fill-opacity="0.6"/>
<path d="M52.25 29L52.25 36C52.25 37.7949 50.7949 39.25 49 39.25L41.2969 39.25L35.0693 33.4121C34.5426 32.9183 34.5426 32.0817 35.0693 31.5879L41.2969 25.75L49 25.75C50.7949 25.75 52.25 27.2051 52.25 29Z" fill="white" stroke="#4F4F4F" stroke-width="1.5"/>
<path d="M47.4938 30.4177L49.5419 32.1504C49.7803 32.352 49.7775 32.7205 49.5362 32.9186L47.4903 34.5976C47.2945 34.7583 47 34.619 47 34.3657L47 30.6467C47 30.3913 47.2988 30.2528 47.4938 30.4177Z" fill="#383939"/>
<path d="M15 23C11.6863 23 9 25.6863 9 29L9 36C9 39.3137 11.6863 42 15 42L24 42L32.4737 33.95C33.3037 33.1615 33.3037 31.8385 32.4737 31.05L24 23L15 23Z" fill="white" fill-opacity="0.6"/>
<path d="M11.75 29L11.75 36C11.75 37.7949 13.2051 39.25 15 39.25L22.7031 39.25L28.9307 33.4121C29.4574 32.9183 29.4574 32.0817 28.9307 31.5879L22.7031 25.75L15 25.75C13.2051 25.75 11.75 27.2051 11.75 29Z" fill="white" stroke="#4F4F4F" stroke-width="1.5"/>
<path d="M16.5062 30.4177L14.4581 32.1504C14.2197 32.352 14.2225 32.7205 14.4638 32.9186L16.5097 34.5976C16.7055 34.7583 17 34.619 17 34.3657L17 30.6467C17 30.3913 16.7012 30.2528 16.5062 30.4177Z" fill="#383939"/>
</g>
<defs>
<filter id="filter0_d_392_7827" x="0" y="0" width="64" height="64" filterUnits="userSpaceOnUse" color-interpolation-filters="sRGB">
<feFlood flood-opacity="0" result="BackgroundImageFix"/>
<feColorMatrix in="SourceAlpha" type="matrix" values="0 0 0 0 0 0 0 0 0 0 0 0 0 0 0 0 0 0 127 0" result="hardAlpha"/>
<feOffset/>
<feGaussianBlur stdDeviation="4"/>
<feComposite in2="hardAlpha" operator="out"/>
<feColorMatrix type="matrix" values="0 0 0 0 0 0 0 0 0 0 0 0 0 0 0 0 0 0 0.5 0"/>
<feBlend mode="normal" in2="BackgroundImageFix" result="effect1_dropShadow_392_7827"/>
<feBlend mode="normal" in="SourceGraphic" in2="effect1_dropShadow_392_7827" result="shape"/>
</filter>
</defs>
</svg>
