<svg width="64" height="64" viewBox="0 0 64 64" fill="none" xmlns="http://www.w3.org/2000/svg">
<g filter="url(#filter0_d_347_4581)">
<circle cx="32" cy="32" r="15" fill="#363838" stroke="#4F4F4F" stroke-width="2"/>
<circle cx="32" cy="32" r="17" stroke="white" stroke-opacity="0.5" stroke-width="2"/>
<g filter="url(#filter1_d_347_4581)">
<path d="M41.1924 39.4246L39.7782 40.8388L23.5147 24.5753L24.929 23.1611L41.1924 39.4246Z" fill="white"/>
<path d="M24.2217 40.8389L22.8075 39.4247L39.071 23.1612L40.4852 24.5754L24.2217 40.8389Z" fill="white"/>
<path d="M39.1591 23.0732L40.5731 24.4873L40.662 24.5752L40.5731 24.6641L33.5907 31.6455L41.2811 39.3359L41.369 39.4248L39.7782 41.0156L31.9999 33.2373L24.3104 40.9277L24.2216 41.0156L22.6307 39.4248L22.7186 39.3359L30.4081 31.6455L23.3378 24.5752L23.4266 24.4873L24.8407 23.0723L24.9286 22.9844L25.0175 23.0723L31.9999 30.0547L38.9823 23.0732L39.0712 22.9844L39.1591 23.0732Z" stroke="white" stroke-width="0.25"/>
</g>
</g>
<defs>
<filter id="filter0_d_347_4581" x="0" y="0" width="64" height="64" filterUnits="userSpaceOnUse" color-interpolation-filters="sRGB">
<feFlood flood-opacity="0" result="BackgroundImageFix"/>
<feColorMatrix in="SourceAlpha" type="matrix" values="0 0 0 0 0 0 0 0 0 0 0 0 0 0 0 0 0 0 127 0" result="hardAlpha"/>
<feOffset/>
<feGaussianBlur stdDeviation="4"/>
<feComposite in2="hardAlpha" operator="out"/>
<feColorMatrix type="matrix" values="0 0 0 0 0 0 0 0 0 0 0 0 0 0 0 0 0 0 0.5 0"/>
<feBlend mode="normal" in2="BackgroundImageFix" result="effect1_dropShadow_347_4581"/>
<feBlend mode="normal" in="SourceGraphic" in2="effect1_dropShadow_347_4581" result="shape"/>
</filter>
<filter id="filter1_d_347_4581" x="21.4539" y="22.8076" width="21.092" height="20.3849" filterUnits="userSpaceOnUse" color-interpolation-filters="sRGB">
<feFlood flood-opacity="0" result="BackgroundImageFix"/>
<feColorMatrix in="SourceAlpha" type="matrix" values="0 0 0 0 0 0 0 0 0 0 0 0 0 0 0 0 0 0 127 0" result="hardAlpha"/>
<feOffset dy="1"/>
<feGaussianBlur stdDeviation="0.5"/>
<feComposite in2="hardAlpha" operator="out"/>
<feColorMatrix type="matrix" values="0 0 0 0 0 0 0 0 0 0 0 0 0 0 0 0 0 0 0.65 0"/>
<feBlend mode="normal" in2="BackgroundImageFix" result="effect1_dropShadow_347_4581"/>
<feBlend mode="normal" in="SourceGraphic" in2="effect1_dropShadow_347_4581" result="shape"/>
</filter>
</defs>
</svg>
